<?xml version="1.0" encoding="utf-8"?>
<!-- Generator: Adobe Illustrator 24.1.1, SVG Export Plug-In . SVG Version: 6.00 Build 0)  -->
<svg version="1.1" id="Camada_1" xmlns="http://www.w3.org/2000/svg" xmlns:xlink="http://www.w3.org/1999/xlink" x="0px" y="0px"
	 viewBox="0 0 100 100" style="enable-background:new 0 0 100 100;" xml:space="preserve">
<style type="text/css">
	.st0{fill:none;stroke:#1F1F1F;stroke-width:4;stroke-linecap:round;stroke-linejoin:round;stroke-miterlimit:10;}
</style>
<g>
	<polyline class="st0" points="50.43,85.4 63.55,85.4 74.63,77.23 85.31,57.51 85.11,43.67 72.55,21.91 61.37,14.6 50.43,14.6 	"/>
	<polyline class="st0" points="85.11,43.67 68.97,62.24 63.55,85.4 	"/>
	<polyline class="st0" points="50.43,85.4 36.45,85.4 25.37,77.23 14.69,57.51 14.89,43.67 27.45,21.91 38.63,14.6 50.43,14.6 	"/>
	<polyline class="st0" points="27.45,21.91 50,27.55 72.55,21.91 	"/>
	<polyline class="st0" points="14.89,43.67 31.03,62.24 36.45,85.4 	"/>
	<polyline class="st0" points="31.03,62.24 50,50.69 68.97,62.24 	"/>
	<line class="st0" x1="50" y1="27.55" x2="50" y2="50.69"/>
</g>
</svg>
